<?xml version="1.0" encoding="utf-8"?>
<!-- Generator: Adobe Illustrator 16.0.1, SVG Export Plug-In . SVG Version: 6.00 Build 0)  -->
<!DOCTYPE svg PUBLIC "-//W3C//DTD SVG 1.1//EN" "http://www.w3.org/Graphics/SVG/1.1/DTD/svg11.dtd">
<svg version="1.1" id="Layer_1" xmlns="http://www.w3.org/2000/svg" xmlns:xlink="http://www.w3.org/1999/xlink" x="0px" y="0px"
	 width="182px" height="182px" viewBox="0 0 182 182" enable-background="new 0 0 182 182" xml:space="preserve">
<g>
	<path fill="#FFFFFF" d="M91.001,36.906c1.774,0,3.21-1.436,3.21-3.211V17.506c0-1.774-1.436-3.211-3.21-3.211
		c-1.775,0-3.212,1.438-3.212,3.211v16.188C87.789,35.471,89.226,36.906,91.001,36.906z"/>
	<path fill="#FFFFFF" d="M91.001,167.705c1.774,0,3.21-1.436,3.21-3.211v-16.189c0-1.774-1.436-3.211-3.21-3.211
		c-1.775,0-3.212,1.438-3.212,3.211v16.188C87.789,166.27,89.226,167.705,91.001,167.705z"/>
</g>
<g>
	<path fill="#FFFFFF" d="M52.751,52.749c1.254-1.254,1.254-3.285-0.002-4.54L41.302,36.761c-1.255-1.255-3.285-1.255-4.54-0.001
		c-1.255,1.255-1.255,3.288-0.001,4.542l11.447,11.447C49.464,54.005,51.495,54.004,52.751,52.749z"/>
	<path fill="#FFFFFF" d="M145.239,145.238c1.254-1.255,1.254-3.285-0.001-4.541L133.79,129.25c-1.254-1.255-3.285-1.256-4.539-0.001
		c-1.256,1.255-1.256,3.288-0.002,4.542l11.447,11.447C141.952,146.494,143.983,146.493,145.239,145.238z"/>
</g>
<g>
	<path fill="#FFFFFF" d="M52.751,52.749c1.254-1.254,1.254-3.285-0.002-4.54L41.302,36.761c-1.255-1.255-3.285-1.255-4.54-0.001
		c-1.255,1.255-1.255,3.288-0.001,4.542l11.447,11.447C49.464,54.005,51.495,54.004,52.751,52.749z"/>
	<path fill="#FFFFFF" d="M145.239,145.238c1.254-1.255,1.254-3.285-0.001-4.541L133.79,129.25c-1.254-1.255-3.285-1.256-4.539-0.001
		c-1.256,1.255-1.256,3.288-0.002,4.542l11.447,11.447C141.952,146.494,143.983,146.493,145.239,145.238z"/>
</g>
<g>
	<path fill="#FFFFFF" d="M52.751,52.749c1.254-1.254,1.254-3.285-0.002-4.54L41.302,36.761c-1.255-1.255-3.285-1.255-4.54-0.001
		c-1.255,1.255-1.255,3.288-0.001,4.542l11.447,11.447C49.464,54.005,51.495,54.004,52.751,52.749z"/>
	<path fill="#FFFFFF" d="M145.239,145.238c1.254-1.255,1.254-3.285-0.001-4.541L133.79,129.25c-1.254-1.255-3.285-1.256-4.539-0.001
		c-1.256,1.255-1.256,3.288-0.002,4.542l11.447,11.447C141.952,146.494,143.983,146.493,145.239,145.238z"/>
</g>
<g>
	<path fill="#FFFFFF" d="M36.907,90.999c-0.001-1.774-1.437-3.209-3.212-3.209H17.506c-1.774,0-3.21,1.435-3.212,3.209
		c0.001,1.775,1.438,3.212,3.212,3.212h16.188C35.471,94.211,36.907,92.773,36.907,90.999z"/>
	<path fill="#FFFFFF" d="M167.706,90.999c-0.001-1.774-1.437-3.209-3.213-3.21l-16.189,0.001c-1.773-0.001-3.211,1.435-3.21,3.208
		c-0.001,1.775,1.437,3.213,3.21,3.213h16.189C166.269,94.211,167.705,92.775,167.706,90.999z"/>
</g>
<g>
	<path fill="#FFFFFF" d="M36.907,90.999c-0.001-1.774-1.437-3.209-3.212-3.209H17.506c-1.774,0-3.21,1.435-3.212,3.209
		c0.001,1.775,1.438,3.212,3.212,3.212h16.188C35.471,94.211,36.907,92.773,36.907,90.999z"/>
	<path fill="#FFFFFF" d="M167.706,90.999c-0.001-1.774-1.437-3.209-3.213-3.21l-16.189,0.001c-1.773-0.001-3.211,1.435-3.21,3.208
		c-0.001,1.775,1.437,3.213,3.21,3.213h16.189C166.269,94.211,167.705,92.775,167.706,90.999z"/>
</g>
<g>
	<path fill="#FFFFFF" d="M52.75,129.249c-1.255-1.253-3.286-1.253-4.541,0.002l-11.447,11.447c-1.255,1.256-1.255,3.285-0.002,4.541
		c1.255,1.254,3.288,1.254,4.542,0l11.447-11.447C54.005,132.536,54.005,130.505,52.75,129.249z"/>
	<path fill="#FFFFFF" d="M145.239,36.76c-1.256-1.253-3.286-1.253-4.543,0.002L129.249,48.21c-1.254,1.253-1.256,3.285,0,4.539
		c1.255,1.257,3.287,1.256,4.541,0.002l11.447-11.448C146.493,40.048,146.493,38.017,145.239,36.76z"/>
</g>
</svg>
