<?xml version="1.0" encoding="utf-8"?>
<!-- Generator: Adobe Illustrator 16.0.1, SVG Export Plug-In . SVG Version: 6.00 Build 0)  -->
<!DOCTYPE svg PUBLIC "-//W3C//DTD SVG 1.1//EN" "http://www.w3.org/Graphics/SVG/1.1/DTD/svg11.dtd">
<svg version="1.1" id="Layer_1" xmlns="http://www.w3.org/2000/svg" xmlns:xlink="http://www.w3.org/1999/xlink" x="0px" y="0px"
	 width="182px" height="182px" viewBox="0 0 182 182" enable-background="new 0 0 182 182" xml:space="preserve">
<g>
	<path fill="#FFFFFF" d="M144.852,81.235c0-18.553-14.968-33.644-33.367-33.644c-14.256,0-27.04,9.399-31.562,22.943
		C65.263,70.685,52.838,80.99,49.623,95.188c-3.116-1.021-6.318-1.535-9.555-1.535c-17.11,0-31.564,14.962-31.564,32.668
		c0,17.715,14.454,32.675,31.564,32.675h68.868c17.11,0,31.564-14.96,31.564-32.675c0-7.465-2.674-14.354-6.93-19.93
		C140.732,99.998,144.852,90.929,144.852,81.235z M134.76,126.322c0,14.574-11.824,26.885-25.824,26.885h-68.87
		c-14,0-25.826-12.311-25.826-26.885c0-14.571,11.825-26.883,25.826-26.883c3.615,0,7.185,0.795,10.609,2.356
		c0.835,0.386,1.805,0.336,2.606-0.122c0.799-0.453,1.331-1.273,1.432-2.195C56.162,86.262,67.136,76.29,80.239,76.29
		c12.251,0,22.898,8.782,25.31,20.88c0.27,1.354,1.448,2.324,2.812,2.324c0.205,0,0.466-0.029,0.572-0.061
		C122.936,99.439,134.76,111.751,134.76,126.322z M129.697,102.132c-5.209-4.812-11.819-8.011-19.078-8.43
		c-3.275-11.74-13.016-20.493-24.757-22.651c4.12-10.486,14.292-17.672,25.623-17.672c15.233,0,27.629,12.497,27.629,27.856
		C139.111,89.296,135.676,96.836,129.697,102.132z"/>
</g>
<path fill="none" d="M110.369,40.367c1.586,0,2.869-1.294,2.869-2.894V25.9c0-1.599-1.283-2.894-2.869-2.894
	S107.5,24.302,107.5,25.9v11.573C107.5,39.073,108.783,40.367,110.369,40.367z"/>
<path fill="none" d="M170.629,83.767H159.15c-1.586,0-2.869,1.294-2.869,2.894c0,1.6,1.283,2.894,2.869,2.894h11.479
	c1.586,0,2.869-1.294,2.869-2.894C173.498,85.061,172.215,83.767,170.629,83.767z"/>
<path fill="none" d="M75.282,53.488c0.561,0.566,1.294,0.849,2.029,0.849s1.468-0.282,2.029-0.849c1.121-1.13,1.121-2.96,0-4.091
	l-8.119-8.183c-1.121-1.13-2.937-1.13-4.058,0c-1.121,1.131-1.121,2.961,0,4.091L75.282,53.488z"/>
<path fill="none" d="M156.443,45.306c1.121-1.13,1.121-2.96,0-4.091c-1.12-1.13-2.938-1.13-4.06,0l-8.116,8.183
	c-1.121,1.131-1.121,2.961,0,4.091c0.561,0.566,1.295,0.849,2.025,0.849s1.473-0.282,2.029-0.849L156.443,45.306z"/>
<path fill="none" d="M151.63,110.714c-1.121-1.13-2.938-1.13-4.058,0c-1.121,1.132-1.121,2.962,0,4.093l8.115,8.188
	c0.561,0.562,1.295,0.848,2.024,0.848c0.733,0,1.472-0.278,2.029-0.848c1.12-1.134,1.12-2.961,0-4.095L151.63,110.714z"/>
</svg>
