<?xml version="1.0" encoding="utf-8"?>
<!-- Generator: Adobe Illustrator 16.0.1, SVG Export Plug-In . SVG Version: 6.00 Build 0)  -->
<!DOCTYPE svg PUBLIC "-//W3C//DTD SVG 1.1//EN" "http://www.w3.org/Graphics/SVG/1.1/DTD/svg11.dtd">
<svg version="1.1" id="Layer_1" xmlns="http://www.w3.org/2000/svg" xmlns:xlink="http://www.w3.org/1999/xlink" x="0px" y="0px"
	 width="182px" height="182px" viewBox="0 0 182 182" enable-background="new 0 0 182 182" xml:space="preserve">
<g>
	<path fill="#FFFFFF" d="M150.633,59.333c-1.552,0-2.806,1.255-2.806,2.807c0,1.552,1.254,2.807,2.806,2.807
		c6.524,0,12.249,6.357,12.249,13.605c0,6.749-5.577,14.899-12.506,14.899H80.968c-1.552,0-2.807,1.256-2.807,2.806
		c0,1.553,1.255,2.808,2.807,2.808h69.408c10.372,0,18.119-10.831,18.119-20.512C168.495,68.136,160.314,59.333,150.633,59.333z"/>
	<path fill="#FFFFFF" d="M144.763,104.679H47.284c-1.553,0-2.809,1.256-2.809,2.808c0,1.551,1.256,2.807,2.809,2.807h97.479
		c6.666,0,12.505,6.349,12.505,13.579c0,6.733-5.236,14.261-12.249,14.261c-1.55,0-2.806,1.261-2.806,2.808
		c0,1.557,1.256,2.807,2.806,2.807c10.526,0,17.863-10.471,17.863-19.875C162.882,113.649,154.416,104.679,144.763,104.679z"/>
</g>
</svg>
