<?xml version="1.0" encoding="utf-8"?>
<!-- Generator: Adobe Illustrator 16.0.1, SVG Export Plug-In . SVG Version: 6.00 Build 0)  -->
<!DOCTYPE svg PUBLIC "-//W3C//DTD SVG 1.1//EN" "http://www.w3.org/Graphics/SVG/1.1/DTD/svg11.dtd">
<svg version="1.1" id="Layer_1" xmlns="http://www.w3.org/2000/svg" xmlns:xlink="http://www.w3.org/1999/xlink" x="0px" y="0px"
	 width="182px" height="182px" viewBox="0 0 182 182" enable-background="new 0 0 182 182" xml:space="preserve">
<g>
	<g>
		<path fill="#FFFFFF" d="M108.096,37.275c-0.004,0.797,0.316,1.515,0.836,2.035c0.52,0.52,1.236,0.838,2.035,0.834
			c1.591-0.006,2.885-1.3,2.893-2.893l0.045-11.527c0.007-1.591-1.277-2.875-2.869-2.869c-1.594,0.007-2.887,1.301-2.895,2.893
			L108.096,37.275z"/>
		<path fill="none" d="M113.907,131.726c0.006-1.592-1.279-2.877-2.868-2.869c-1.594,0.007-2.887,1.302-2.895,2.894l-0.053,11.528
			c0,0.794,0.316,1.516,0.832,2.031c0.52,0.519,1.238,0.844,2.035,0.835c1.594-0.009,2.886-1.301,2.896-2.895L113.907,131.726z"/>
	</g>
	<g>
		<path fill="#FFFFFF" d="M75.554,53.16c0.561,0.566,1.295,0.848,2.029,0.849c0.734,0,1.467-0.281,2.029-0.849
			c1.12-1.13,1.12-2.959,0-4.091l-8.119-8.183c-1.121-1.13-2.938-1.13-4.059,0c-1.121,1.131-1.121,2.961,0,4.091L75.554,53.16z"/>
		<path fill="#FFFFFF" d="M146.449,115.838c-1.121-1.13-2.938-1.129-4.058,0c-1.121,1.131-1.121,2.961,0,4.092l8.115,8.189
			c0.561,0.561,1.295,0.848,2.024,0.848c0.733,0,1.472-0.279,2.029-0.849c1.12-1.134,1.12-2.96,0.001-4.095L146.449,115.838z"/>
	</g>
	<g>
		<path fill="none" d="M63.774,87.404c0.797,0.004,1.516-0.316,2.035-0.836c0.52-0.519,0.839-1.235,0.835-2.035
			c-0.007-1.591-1.3-2.884-2.894-2.893l-11.527-0.045c-1.592-0.006-2.875,1.278-2.869,2.871c0.007,1.592,1.301,2.886,2.893,2.894
			L63.774,87.404z"/>
		<path fill="#FFFFFF" d="M158.226,81.593c-1.592-0.006-2.876,1.279-2.869,2.869c0.007,1.593,1.301,2.887,2.894,2.894l11.528,0.053
			c0.793,0,1.516-0.316,2.031-0.832c0.52-0.52,0.844-1.238,0.835-2.035c-0.01-1.594-1.302-2.885-2.895-2.896L158.226,81.593z"/>
	</g>
	<g>
		<path fill="none" d="M79.66,119.947c0.565-0.561,0.849-1.295,0.848-2.03c0.001-0.734-0.28-1.467-0.849-2.029
			c-1.13-1.12-2.959-1.12-4.092,0l-8.183,8.119c-1.13,1.122-1.129,2.938,0.001,4.059c1.131,1.121,2.96,1.121,4.092,0.001
			L79.66,119.947z"/>
		<path fill="#FFFFFF" d="M142.338,49.051c-1.13,1.121-1.13,2.938,0,4.058c1.131,1.121,2.961,1.121,4.092,0l8.188-8.115
			c0.561-0.561,0.849-1.295,0.85-2.024c-0.001-0.735-0.28-1.472-0.85-2.03c-1.134-1.12-2.961-1.12-4.095-0.001L142.338,49.051z"/>
	</g>
</g>
</svg>
