<?xml version="1.0" encoding="utf-8"?>
<!-- Generator: Adobe Illustrator 16.0.1, SVG Export Plug-In . SVG Version: 6.00 Build 0)  -->
<!DOCTYPE svg PUBLIC "-//W3C//DTD SVG 1.1//EN" "http://www.w3.org/Graphics/SVG/1.1/DTD/svg11.dtd">
<svg version="1.1" id="Layer_1" xmlns="http://www.w3.org/2000/svg" xmlns:xlink="http://www.w3.org/1999/xlink" x="0px" y="0px"
	 width="182px" height="182px" viewBox="0 0 182 182" enable-background="new 0 0 182 182" xml:space="preserve">
<g>
	<path fill="#FFFFFF" d="M65.374,64c-1.574,0-2.847,1.288-2.847,2.88v29.034c0,1.592,1.273,2.879,2.847,2.879
		s2.848-1.287,2.848-2.879V66.88C68.221,65.288,66.948,64,65.374,64z"/>
	<path fill="#FFFFFF" d="M99.543,65c-1.574,0-2.848,1.288-2.848,2.88v28.034c0,1.592,1.271,2.879,2.848,2.879
		s2.846-1.287,2.846-2.879V67.88C102.389,66.288,101.117,65,99.543,65z"/>
	<path fill="#FFFFFF" d="M82.458,71c-1.574,0-2.848,1.288-2.848,2.88v10.517c0,1.594,1.273,2.881,2.848,2.881
		s2.847-1.287,2.847-2.881V73.88C85.305,72.288,84.032,71,82.458,71z"/>
	<path fill="#FFFFFF" d="M116.627,72c-1.574,0-2.848,1.288-2.848,2.88v9.517c0,1.594,1.271,2.881,2.848,2.881
		s2.846-1.287,2.846-2.881V74.88C119.473,73.288,118.201,72,116.627,72z"/>
	<path fill="#FFFFFF" d="M116.625,126.793c1.574,0,2.848-1.288,2.848-2.88v-23.034c0-1.592-1.271-2.879-2.848-2.879
		s-2.848,1.287-2.848,2.879v23.034C113.777,125.505,115.051,126.793,116.625,126.793z"/>
	<path fill="#FFFFFF" d="M82.457,126.793c1.574,0,2.848-1.288,2.848-2.88v-23.034c0-1.592-1.272-2.879-2.848-2.879
		s-2.846,1.287-2.846,2.879v23.034C79.611,125.505,80.882,126.793,82.457,126.793z"/>
	<path fill="#FFFFFF" d="M99.541,126.793c1.574,0,2.85-1.288,2.85-2.88v-11.517c0-1.596-1.271-2.881-2.85-2.881
		c-1.574,0-2.848,1.285-2.848,2.881v11.517C96.693,125.505,97.967,126.793,99.541,126.793z"/>
	<path fill="#FFFFFF" d="M65.373,126.793c1.574,0,2.848-1.288,2.848-2.88v-11.517c0-1.596-1.272-2.881-2.848-2.881
		s-2.846,1.285-2.846,2.881v11.517C62.527,125.505,63.798,126.793,65.373,126.793z"/>
	<path fill="#FFFFFF" d="M65.374,0c-1.574,0-2.847,1.288-2.847,2.88v23.034c0,1.592,1.273,2.879,2.847,2.879
		s2.848-1.287,2.848-2.879V2.88C68.221,1.288,66.948,0,65.374,0z"/>
	<path fill="#FFFFFF" d="M99.543,0c-1.574,0-2.848,1.288-2.848,2.88v23.034c0,1.592,1.271,2.879,2.848,2.879
		s2.846-1.287,2.846-2.879V2.88C102.389,1.288,101.117,0,99.543,0z"/>
	<path fill="#FFFFFF" d="M82.458,0c-1.574,0-2.848,1.288-2.848,2.88v11.517c0,1.593,1.273,2.881,2.848,2.881
		s2.847-1.288,2.847-2.881V2.88C85.305,1.288,84.032,0,82.458,0z"/>
	<path fill="#FFFFFF" d="M116.627,0c-1.574,0-2.848,1.288-2.848,2.88v11.517c0,1.593,1.271,2.881,2.848,2.881
		s2.846-1.288,2.846-2.881V2.88C119.473,1.288,118.201,0,116.627,0z"/>
	<path fill="#FFFFFF" d="M116.625,62.793c1.574,0,2.848-1.288,2.848-2.88V30.879c0-1.592-1.271-2.879-2.848-2.879
		s-2.848,1.287-2.848,2.879v29.034C113.777,61.505,115.051,62.793,116.625,62.793z"/>
	<path fill="#FFFFFF" d="M82.457,61.793c1.574,0,2.848-1.288,2.848-2.88V30.879c0-1.592-1.272-2.879-2.848-2.879
		s-2.846,1.287-2.846,2.879v28.034C79.611,60.505,80.882,61.793,82.457,61.793z"/>
	<path fill="#FFFFFF" d="M99.541,54.793c1.574,0,2.85-1.288,2.85-2.88v-9.517c0-1.593-1.271-2.881-2.85-2.881
		c-1.574,0-2.848,1.289-2.848,2.881v9.518C96.693,53.505,97.967,54.793,99.541,54.793z"/>
	<path fill="#FFFFFF" d="M65.373,53.793c1.574,0,2.848-1.288,2.848-2.88v-8.517c0-1.593-1.272-2.881-2.848-2.881
		s-2.846,1.289-2.846,2.881v8.518C62.527,52.505,63.798,53.793,65.373,53.793z"/>
	<path fill="#FFFFFF" d="M65.374,138c-1.574,0-2.847,1.288-2.847,2.88v23.034c0,1.592,1.273,2.879,2.847,2.879
		s2.848-1.287,2.848-2.879V140.88C68.221,139.288,66.948,138,65.374,138z"/>
	<path fill="#FFFFFF" d="M99.543,138c-1.574,0-2.848,1.288-2.848,2.88v23.034c0,1.592,1.271,2.879,2.848,2.879
		s2.846-1.287,2.846-2.879V140.88C102.389,139.288,101.117,138,99.543,138z"/>
	<path fill="#FFFFFF" d="M82.458,138c-1.574,0-2.848,1.288-2.848,2.88v11.517c0,1.594,1.273,2.881,2.848,2.881
		s2.847-1.287,2.847-2.881V140.88C85.305,139.288,84.032,138,82.458,138z"/>
	<path fill="#FFFFFF" d="M116.627,138c-1.574,0-2.848,1.288-2.848,2.88v11.517c0,1.594,1.271,2.881,2.848,2.881
		s2.846-1.287,2.846-2.881V140.88C119.473,139.288,118.201,138,116.627,138z"/>
</g>
</svg>
