<?xml version="1.0" encoding="utf-8"?>
<!-- Generator: Adobe Illustrator 16.0.1, SVG Export Plug-In . SVG Version: 6.00 Build 0)  -->
<!DOCTYPE svg PUBLIC "-//W3C//DTD SVG 1.1//EN" "http://www.w3.org/Graphics/SVG/1.1/DTD/svg11.dtd">
<svg version="1.1" id="Layer_1" xmlns="http://www.w3.org/2000/svg" xmlns:xlink="http://www.w3.org/1999/xlink" x="0px" y="0px"
	 width="182px" height="182px" viewBox="0 0 182 182" enable-background="new 0 0 182 182" xml:space="preserve">
<g>
	<g>
		<path fill="#FFFFFF" d="M126.842,48.584c-3.758-13.511-16.076-23.088-30.146-23.088c-14.688,0-27.167,10.331-30.381,24.561
			c-3.091-1.014-6.267-1.525-9.481-1.525c-17.924,0-31.321,18.622-31.321,35.271c0,16.649,13.397,35.271,31.321,35.271h68.336
			c17.924,0,31.322-18.622,31.322-35.271C156.49,67.674,143.922,49.697,126.842,48.584z M125.168,113.314H56.832
			c-14.432,0-25.626-15.863-25.626-29.514c0-13.648,11.195-29.513,25.626-29.513c3.587,0,7.13,0.791,10.533,2.348
			c0.828,0.386,1.785,0.335,2.586-0.121c0.79-0.458,1.318-1.271,1.418-2.188c1.435-13.152,12.318-23.073,25.326-23.073
			c12.156,0,22.718,8.739,25.115,20.782c0.271,1.372,1.545,2.298,2.873,2.312c0.207-0.009,0.406-0.031,0.484-0.06
			c14.432,0,25.627,15.864,25.627,29.513C150.795,97.451,139.6,113.314,125.168,113.314z"/>
	</g>
</g>
</svg>
